<?xml version="1.0" encoding="utf-8"?>
<!-- Svg Vector Icons : http://www.onlinewebfonts.com/icon -->
<!DOCTYPE svg PUBLIC "-//W3C//DTD SVG 1.1//EN" "http://www.w3.org/Graphics/SVG/1.1/DTD/svg11.dtd">
<svg version="1.1" xmlns="http://www.w3.org/2000/svg" xmlns:xlink="http://www.w3.org/1999/xlink" x="0px" y="0px" viewBox="0 0 1000 1000" enable-background="new 0 0 1000 1000" xml:space="preserve">
<metadata> Svg Vector Icons : http://www.onlinewebfonts.com/icon </metadata>
<g><path d="M500,10C229.4,10,10,229.4,10,500c0,270.6,219.4,490,490,490c270.6,0,490-219.4,490-490C990,229.4,770.6,10,500,10z M500,898.1c-219.9,0-398.1-178.2-398.1-398.1S280.1,101.9,500,101.9S898.1,280.1,898.1,500S719.9,898.1,500,898.1z"/><path d="M689,397.4l-88.9-91.2L498.9,409.9L395.5,309.1l-91.2,89L410,501.1l-99,101.5l89,91.2L501.1,590l99.5,97.1l91.2-88.9l-101.8-99.3L689,397.4z"/></g>
</svg>