<?xml version="1.0" encoding="utf-8"?>
<!-- Svg Vector Icons : http://www.onlinewebfonts.com/icon -->
<!DOCTYPE svg PUBLIC "-//W3C//DTD SVG 1.1//EN" "http://www.w3.org/Graphics/SVG/1.1/DTD/svg11.dtd">
<svg version="1.1" xmlns="http://www.w3.org/2000/svg" xmlns:xlink="http://www.w3.org/1999/xlink" x="0px" y="0px" viewBox="0 0 1000 1000" enable-background="new 0 0 1000 1000" xml:space="preserve">
<metadata> Svg Vector Icons : http://www.onlinewebfonts.com/icon </metadata>
<g><g transform="translate(0.000000,511.000000) scale(0.100000,-0.100000)"><path d="M4582.7,4857.4c-384.2-86.1-1344.8-298.2-2131.2-470.3C1392.9,4155,988.7,4056.9,894.7,4014.9c-302.2-140.1-514.3-506.3-478.3-820.5c12-104.1,648.4-3003.7,662.4-3017.7c8-6,786.4,154.1,808.5,166.1c2,2-56,282.2-132.1,622.4c-120.1,538.3-132.1,620.3-106.1,632.3c18,8,690.4,158.1,1492.8,334.2c2651.5,582.3,3457.9,760.4,3466,770.4c6,4-76,400.2-182.1,880.5c-134.1,616.3-206.1,902.5-244.1,974.6c-76.1,150.1-242.1,308.2-402.2,384.2c-116.1,54-162.1,64-316.2,68.1C5301.1,5013.5,5211.1,4997.5,4582.7,4857.4z M5529.3,3758.8c48-224.1,82-412.2,76-418.2c-6-6-472.3-114.1-1036.6-238.1c-564.3-124.1-1498.8-328.2-2075.1-456.3C1915.2,2520.1,1441,2418,1439,2420c-16,18-182.1,826.5-172.1,838.5c20,18,4088.3,914.5,4136.3,910.5C5435.2,4165,5453.2,4113,5529.3,3758.8z"/><path d="M6441.8,1619.6L5379.2,342.9l628.3-6c552.3-4,628.3-8,618.3-34c-6-18-282.1-482.3-614.3-1032.6c-330.2-550.3-598.3-1004.6-594.3-1006.6c2-4,846.5,646.4,1873,1446.8l1869.1,1452.8l-832.5,6c-458.2,2-832.5,12-830.5,20c0,8,468.3,388.2,1040.6,844.5c574.3,456.2,1046.6,836.5,1050.6,846.5c6,8-460.3,14-1036.6,14H7504.4L6441.8,1619.6z"/><path d="M3662.2,541C3454.1,434.9,3276,342.9,3268,334.9c-8-6,448.3-476.3,1016.6-1042.6l1032.6-1030.6L4698.8-501.6c-338.2,678.4-624.3,1234.7-636.4,1234.7C4052.4,733.1,3872.3,647,3662.2,541z"/><path d="M1090.8-2232.6c0-1000.6,8-1755,20-1825c60-366.2,346.2-652.4,712.4-712.4c70-12,982.5-20,2269.3-20c2339.3,0,2315.3,0,2521.4,112.1c104.1,56,252.1,194.1,320.2,298.2c22,34,58,118.1,80,188.1c38,120.1,40,186.1,40,1464.8v1338.8h-420.2h-420.2v-420.2v-420.2H4072.4H1931.2v850.5v850.5H1511h-420.2V-2232.6z M6213.7-3509.3v-440.2H4072.4H1931.2v440.2v440.2h2141.2h2141.2V-3509.3z"/></g></g>
</svg>