<?xml version="1.0" encoding="utf-8"?>
<!-- Svg Vector Icons : http://www.onlinewebfonts.com/icon -->
<!DOCTYPE svg PUBLIC "-//W3C//DTD SVG 1.1//EN" "http://www.w3.org/Graphics/SVG/1.1/DTD/svg11.dtd">
<svg version="1.1" xmlns="http://www.w3.org/2000/svg" xmlns:xlink="http://www.w3.org/1999/xlink" x="0px" y="0px" viewBox="0 0 1000 1000" enable-background="new 0 0 1000 1000" xml:space="preserve">
<metadata> Svg Vector Icons : http://www.onlinewebfonts.com/icon </metadata>
<g><path d="M500,10C229.4,10,10,229.4,10,500c0,270.6,219.4,490,490,490c270.6,0,490-219.4,490-490C990,229.4,770.6,10,500,10z M500,905.2C276.2,905.2,94.8,723.8,94.8,500C94.8,276.2,276.2,94.8,500,94.8c223.8,0,405.2,181.4,405.2,405.2C905.2,723.8,723.8,905.2,500,905.2z"/><path d="M810,307l-5.4-5.4c-13.4-13.4-35.2-13.4-48.6,0L443,614.5l-199-199c-13.4-13.4-35.2-13.4-48.6,0L190,421c-13.4,13.4-13.4,35.2,0,48.6l221.3,221.3c0.6,0.7,1.2,1.4,1.9,2l5.4,5.4c13.4,13.4,35.2,13.4,48.6,0L810,355.7C823.4,342.2,823.4,320.5,810,307z"/></g>
</svg>